<svg width="1440" height="519" viewBox="0 0 1440 519" fill="none" xmlns="http://www.w3.org/2000/svg">
<rect width="1440" height="519" fill="white"/>
<g filter="url(#filter0_f_907_58)">
<path d="M222.676 360.227V309.375H232.051C235.271 306.439 238.301 302.296 241.142 296.946C244.03 291.548 246.469 284.351 248.457 275.355C250.493 266.312 251.843 254.83 252.506 240.909L255.631 179.545H341.994V309.375H358.756V359.943H341.994V325H239.438V360.227H222.676ZM253.074 309.375H325.233V195.17H271.54L269.267 240.909C268.699 251.515 267.705 261.127 266.284 269.744C264.864 278.314 263.041 285.914 260.815 292.543C258.59 299.124 256.009 304.735 253.074 309.375ZM385.371 325V179.545H473.156V195.17H402.985V244.318H468.61V259.943H402.985V309.375H474.292V325H385.371ZM504.903 179.545H522.516V308.807H573.653V179.545H591.266V308.807H642.403V179.545H660.016V325H504.903V179.545ZM695.332 325V179.545H783.116V195.17H712.946V244.318H778.571V259.943H712.946V309.375H784.253V325H695.332ZM814.864 325V179.545H865.716C875.848 179.545 884.205 181.297 890.787 184.801C897.368 188.258 902.269 192.921 905.489 198.793C908.708 204.616 910.318 211.08 910.318 218.182C910.318 224.432 909.205 229.593 906.98 233.665C904.802 237.737 901.914 240.956 898.315 243.324C894.764 245.691 890.905 247.443 886.739 248.58V250C891.189 250.284 895.664 251.847 900.162 254.688C904.66 257.528 908.424 261.6 911.455 266.903C914.485 272.206 916 278.693 916 286.364C916 293.655 914.343 300.213 911.028 306.037C907.714 311.861 902.482 316.477 895.332 319.886C888.183 323.295 878.879 325 867.42 325H814.864ZM832.477 309.375H867.42C878.926 309.375 887.094 307.15 891.923 302.699C896.8 298.201 899.239 292.756 899.239 286.364C899.239 281.439 897.984 276.894 895.474 272.727C892.965 268.513 889.39 265.152 884.75 262.642C880.11 260.085 874.617 258.807 868.273 258.807H832.477V309.375ZM832.477 243.466H865.148C870.451 243.466 875.233 242.424 879.494 240.341C883.803 238.258 887.212 235.322 889.722 231.534C892.278 227.746 893.557 223.295 893.557 218.182C893.557 211.79 891.331 206.368 886.881 201.918C882.43 197.42 875.375 195.17 865.716 195.17H832.477V243.466ZM932.442 325V308.807H936.703C942.764 308.807 947.475 306.866 950.837 302.983C954.198 299.1 956.613 292.827 958.081 284.162C959.596 275.497 960.614 264.015 961.135 249.716L963.692 179.545H1052.33V325H1034.71V195.17H980.453L978.18 253.125C977.612 268.371 976.215 281.345 973.99 292.045C971.765 302.746 967.858 310.914 962.271 316.548C956.684 322.183 948.54 325 937.839 325H932.442ZM1087.52 325V179.545H1175.3V195.17H1105.13V244.318H1170.76V259.943H1105.13V309.375H1176.44V325H1087.52Z" fill="#FF0000"/>
</g>
<path d="M525.682 291.273V280.727H531.5C533.742 280.727 535.621 280.288 537.136 279.409C538.682 278.53 539.955 277.394 540.955 276C541.985 274.606 542.833 273.152 543.5 271.636L544.955 268.182L512.773 196.909H524.955L550.591 254.727L574.045 196.909H586.045L553.864 274.909C552.591 277.818 551.136 280.515 549.5 283C547.894 285.485 545.697 287.485 542.909 289C540.152 290.515 536.409 291.273 531.682 291.273H525.682ZM681.92 250.182V260.182H643.375V250.182H681.92ZM645.92 220.182V290H635.193V220.182H645.92ZM690.102 220.182V290H679.375V220.182H690.102ZM730.239 291.636C725.814 291.636 721.799 290.803 718.193 289.136C714.587 287.439 711.723 285 709.602 281.818C707.481 278.606 706.42 274.727 706.42 270.182C706.42 266.182 707.208 262.939 708.784 260.455C710.36 257.939 712.466 255.97 715.102 254.545C717.739 253.121 720.648 252.061 723.83 251.364C727.042 250.636 730.269 250.061 733.511 249.636C737.754 249.091 741.193 248.682 743.83 248.409C746.496 248.106 748.436 247.606 749.648 246.909C750.89 246.212 751.511 245 751.511 243.273V242.909C751.511 238.424 750.284 234.939 747.83 232.455C745.405 229.97 741.723 228.727 736.784 228.727C731.663 228.727 727.648 229.848 724.739 232.091C721.83 234.333 719.784 236.727 718.602 239.273L708.42 235.636C710.239 231.394 712.663 228.091 715.693 225.727C718.754 223.333 722.087 221.667 725.693 220.727C729.33 219.758 732.905 219.273 736.42 219.273C738.663 219.273 741.239 219.545 744.148 220.091C747.087 220.606 749.92 221.682 752.648 223.318C755.405 224.955 757.693 227.424 759.511 230.727C761.33 234.03 762.239 238.455 762.239 244V290H751.511V280.545H750.966C750.239 282.061 749.027 283.682 747.33 285.409C745.633 287.136 743.375 288.606 740.557 289.818C737.739 291.03 734.299 291.636 730.239 291.636ZM731.875 282C736.117 282 739.693 281.167 742.602 279.5C745.542 277.833 747.754 275.682 749.239 273.045C750.754 270.409 751.511 267.636 751.511 264.727V254.909C751.057 255.455 750.057 255.955 748.511 256.409C746.996 256.833 745.239 257.212 743.239 257.545C741.269 257.848 739.345 258.121 737.466 258.364C735.617 258.576 734.117 258.758 732.966 258.909C730.178 259.273 727.572 259.864 725.148 260.682C722.754 261.47 720.814 262.667 719.33 264.273C717.875 265.848 717.148 268 717.148 270.727C717.148 274.455 718.527 277.273 721.284 279.182C724.072 281.061 727.602 282 731.875 282ZM810.182 291.455C803.636 291.455 798 289.909 793.273 286.818C788.545 283.727 784.909 279.47 782.364 274.045C779.818 268.621 778.545 262.424 778.545 255.455C778.545 248.364 779.848 242.106 782.455 236.682C785.091 231.227 788.758 226.97 793.455 223.909C798.182 220.818 803.697 219.273 810 219.273C814.909 219.273 819.333 220.182 823.273 222C827.212 223.818 830.439 226.364 832.955 229.636C835.47 232.909 837.03 236.727 837.636 241.091H826.909C826.091 237.909 824.273 235.091 821.455 232.636C818.667 230.152 814.909 228.909 810.182 228.909C806 228.909 802.333 230 799.182 232.182C796.061 234.333 793.621 237.379 791.864 241.318C790.136 245.227 789.273 249.818 789.273 255.091C789.273 260.485 790.121 265.182 791.818 269.182C793.545 273.182 795.97 276.288 799.091 278.5C802.242 280.712 805.939 281.818 810.182 281.818C812.97 281.818 815.5 281.333 817.773 280.364C820.045 279.394 821.97 278 823.545 276.182C825.121 274.364 826.242 272.182 826.909 269.636H837.636C837.03 273.758 835.53 277.47 833.136 280.773C830.773 284.045 827.636 286.652 823.727 288.591C819.848 290.5 815.333 291.455 810.182 291.455Z" fill="black"/>
<defs>
<filter id="filter0_f_907_58" x="202.676" y="159.545" width="993.764" height="220.682" filterUnits="userSpaceOnUse" color-interpolation-filters="sRGB">
<feFlood flood-opacity="0" result="BackgroundImageFix"/>
<feBlend mode="normal" in="SourceGraphic" in2="BackgroundImageFix" result="shape"/>
<feGaussianBlur stdDeviation="10" result="effect1_foregroundBlur_907_58"/>
</filter>
</defs>
</svg>
