<svg width="1440" height="519" viewBox="0 0 1440 519" fill="none" xmlns="http://www.w3.org/2000/svg">
<rect width="1440" height="519" fill="white"/>
<g filter="url(#filter0_f_907_74)">
<path d="M265.023 325L215.023 258.239H197.126V325H179.512V179.545H197.126V242.614H204.796L263.035 179.545H284.058L225.251 243.466L286.046 325H265.023ZM314.775 325H296.309L349.718 179.545H367.9L421.309 325H402.843L359.377 202.557H358.241L314.775 325ZM321.593 268.182H396.025V283.807H321.593V268.182ZM445.386 179.545H462.999V228.125C462.999 235.322 464.254 240.98 466.763 245.099C469.273 249.171 472.824 252.06 477.417 253.764C482.01 255.421 487.431 256.25 493.681 256.25C497.611 256.25 501.423 256.108 505.116 255.824C508.809 255.492 512.407 255.043 515.911 254.474C519.462 253.906 522.919 253.22 526.281 252.415C529.69 251.61 533.028 250.71 536.295 249.716V265.625C533.122 266.619 529.974 267.519 526.849 268.324C523.771 269.129 520.551 269.815 517.19 270.384C513.875 270.952 510.3 271.402 506.465 271.733C502.63 272.017 498.369 272.159 493.681 272.159C483.643 272.159 475.002 270.715 467.758 267.827C460.561 264.938 455.021 260.275 451.138 253.835C447.303 247.396 445.386 238.826 445.386 228.125V179.545ZM534.022 179.545H551.636V325H534.022V179.545ZM586.934 325V179.545H674.718V195.17H604.548V244.318H670.173V259.943H604.548V309.375H675.854V325H586.934ZM823.511 225H805.897C804.855 219.934 803.032 215.483 800.428 211.648C797.871 207.812 794.746 204.593 791.053 201.989C787.407 199.337 783.359 197.348 778.908 196.023C774.458 194.697 769.817 194.034 764.988 194.034C756.181 194.034 748.203 196.259 741.053 200.71C733.951 205.161 728.293 211.719 724.079 220.384C719.912 229.048 717.829 239.678 717.829 252.273C717.829 264.867 719.912 275.497 724.079 284.162C728.293 292.827 733.951 299.384 741.053 303.835C748.203 308.286 756.181 310.511 764.988 310.511C769.817 310.511 774.458 309.848 778.908 308.523C783.359 307.197 787.407 305.232 791.053 302.628C794.746 299.976 797.871 296.733 800.428 292.898C803.032 289.015 804.855 284.564 805.897 279.545H823.511C822.185 286.979 819.77 293.632 816.266 299.503C812.763 305.374 808.406 310.369 803.198 314.489C797.99 318.561 792.142 321.662 785.656 323.793C779.216 325.923 772.327 326.989 764.988 326.989C752.583 326.989 741.55 323.958 731.891 317.898C722.232 311.837 714.633 303.22 709.093 292.045C703.553 280.871 700.783 267.614 700.783 252.273C700.783 236.932 703.553 223.674 709.093 212.5C714.633 201.326 722.232 192.708 731.891 186.648C741.55 180.587 752.583 177.557 764.988 177.557C772.327 177.557 779.216 178.622 785.656 180.753C792.142 182.884 797.99 186.009 803.198 190.128C808.406 194.2 812.763 199.171 816.266 205.043C819.77 210.866 822.185 217.519 823.511 225ZM844.018 195.17V179.545H953.109V195.17H907.371V325H889.757V195.17H844.018ZM980.293 325V179.545H1031.15C1041.28 179.545 1049.64 181.297 1056.22 184.801C1062.8 188.258 1067.7 192.921 1070.92 198.793C1074.14 204.616 1075.75 211.08 1075.75 218.182C1075.75 224.432 1074.64 229.593 1072.41 233.665C1070.23 237.737 1067.34 240.956 1063.75 243.324C1060.19 245.691 1056.33 247.443 1052.17 248.58V250C1056.62 250.284 1061.09 251.847 1065.59 254.688C1070.09 257.528 1073.85 261.6 1076.88 266.903C1079.91 272.206 1081.43 278.693 1081.43 286.364C1081.43 293.655 1079.77 300.213 1076.46 306.037C1073.14 311.861 1067.91 316.477 1060.76 319.886C1053.61 323.295 1044.31 325 1032.85 325H980.293ZM997.907 309.375H1032.85C1044.36 309.375 1052.52 307.15 1057.35 302.699C1062.23 298.201 1064.67 292.756 1064.67 286.364C1064.67 281.439 1063.41 276.894 1060.9 272.727C1058.39 268.513 1054.82 265.152 1050.18 262.642C1045.54 260.085 1040.05 258.807 1033.7 258.807H997.907V309.375ZM997.907 243.466H1030.58C1035.88 243.466 1040.66 242.424 1044.92 240.341C1049.23 238.258 1052.64 235.322 1055.15 231.534C1057.71 227.746 1058.99 223.295 1058.99 218.182C1058.99 211.79 1056.76 206.368 1052.31 201.918C1047.86 197.42 1040.8 195.17 1031.15 195.17H997.907V243.466ZM1233.1 252.273C1233.1 267.614 1230.33 280.871 1224.79 292.045C1219.25 303.22 1211.65 311.837 1201.99 317.898C1192.33 323.958 1181.3 326.989 1168.89 326.989C1156.49 326.989 1145.46 323.958 1135.8 317.898C1126.14 311.837 1118.54 303.22 1113 292.045C1107.46 280.871 1104.69 267.614 1104.69 252.273C1104.69 236.932 1107.46 223.674 1113 212.5C1118.54 201.326 1126.14 192.708 1135.8 186.648C1145.46 180.587 1156.49 177.557 1168.89 177.557C1181.3 177.557 1192.33 180.587 1201.99 186.648C1211.65 192.708 1219.25 201.326 1224.79 212.5C1230.33 223.674 1233.1 236.932 1233.1 252.273ZM1216.05 252.273C1216.05 239.678 1213.95 229.048 1209.73 220.384C1205.57 211.719 1199.91 205.161 1192.76 200.71C1185.66 196.259 1177.7 194.034 1168.89 194.034C1160.09 194.034 1152.11 196.259 1144.96 200.71C1137.86 205.161 1132.2 211.719 1127.99 220.384C1123.82 229.048 1121.74 239.678 1121.74 252.273C1121.74 264.867 1123.82 275.497 1127.99 284.162C1132.2 292.827 1137.86 299.384 1144.96 303.835C1152.11 308.286 1160.09 310.511 1168.89 310.511C1177.7 310.511 1185.66 308.286 1192.76 303.835C1199.91 299.384 1205.57 292.827 1209.73 284.162C1213.95 275.497 1216.05 264.867 1216.05 252.273Z" fill="#FF0000"/>
</g>
<path d="M525.682 291.273V280.727H531.5C533.742 280.727 535.621 280.288 537.136 279.409C538.682 278.53 539.955 277.394 540.955 276C541.985 274.606 542.833 273.152 543.5 271.636L544.955 268.182L512.773 196.909H524.955L550.591 254.727L574.045 196.909H586.045L553.864 274.909C552.591 277.818 551.136 280.515 549.5 283C547.894 285.485 545.697 287.485 542.909 289C540.152 290.515 536.409 291.273 531.682 291.273H525.682ZM681.92 250.182V260.182H643.375V250.182H681.92ZM645.92 220.182V290H635.193V220.182H645.92ZM690.102 220.182V290H679.375V220.182H690.102ZM730.239 291.636C725.814 291.636 721.799 290.803 718.193 289.136C714.587 287.439 711.723 285 709.602 281.818C707.481 278.606 706.42 274.727 706.42 270.182C706.42 266.182 707.208 262.939 708.784 260.455C710.36 257.939 712.466 255.97 715.102 254.545C717.739 253.121 720.648 252.061 723.83 251.364C727.042 250.636 730.269 250.061 733.511 249.636C737.754 249.091 741.193 248.682 743.83 248.409C746.496 248.106 748.436 247.606 749.648 246.909C750.89 246.212 751.511 245 751.511 243.273V242.909C751.511 238.424 750.284 234.939 747.83 232.455C745.405 229.97 741.723 228.727 736.784 228.727C731.663 228.727 727.648 229.848 724.739 232.091C721.83 234.333 719.784 236.727 718.602 239.273L708.42 235.636C710.239 231.394 712.663 228.091 715.693 225.727C718.754 223.333 722.087 221.667 725.693 220.727C729.33 219.758 732.905 219.273 736.42 219.273C738.663 219.273 741.239 219.545 744.148 220.091C747.087 220.606 749.92 221.682 752.648 223.318C755.405 224.955 757.693 227.424 759.511 230.727C761.33 234.03 762.239 238.455 762.239 244V290H751.511V280.545H750.966C750.239 282.061 749.027 283.682 747.33 285.409C745.633 287.136 743.375 288.606 740.557 289.818C737.739 291.03 734.299 291.636 730.239 291.636ZM731.875 282C736.117 282 739.693 281.167 742.602 279.5C745.542 277.833 747.754 275.682 749.239 273.045C750.754 270.409 751.511 267.636 751.511 264.727V254.909C751.057 255.455 750.057 255.955 748.511 256.409C746.996 256.833 745.239 257.212 743.239 257.545C741.269 257.848 739.345 258.121 737.466 258.364C735.617 258.576 734.117 258.758 732.966 258.909C730.178 259.273 727.572 259.864 725.148 260.682C722.754 261.47 720.814 262.667 719.33 264.273C717.875 265.848 717.148 268 717.148 270.727C717.148 274.455 718.527 277.273 721.284 279.182C724.072 281.061 727.602 282 731.875 282ZM810.182 291.455C803.636 291.455 798 289.909 793.273 286.818C788.545 283.727 784.909 279.47 782.364 274.045C779.818 268.621 778.545 262.424 778.545 255.455C778.545 248.364 779.848 242.106 782.455 236.682C785.091 231.227 788.758 226.97 793.455 223.909C798.182 220.818 803.697 219.273 810 219.273C814.909 219.273 819.333 220.182 823.273 222C827.212 223.818 830.439 226.364 832.955 229.636C835.47 232.909 837.03 236.727 837.636 241.091H826.909C826.091 237.909 824.273 235.091 821.455 232.636C818.667 230.152 814.909 228.909 810.182 228.909C806 228.909 802.333 230 799.182 232.182C796.061 234.333 793.621 237.379 791.864 241.318C790.136 245.227 789.273 249.818 789.273 255.091C789.273 260.485 790.121 265.182 791.818 269.182C793.545 273.182 795.97 276.288 799.091 278.5C802.242 280.712 805.939 281.818 810.182 281.818C812.97 281.818 815.5 281.333 817.773 280.364C820.045 279.394 821.97 278 823.545 276.182C825.121 274.364 826.242 272.182 826.909 269.636H837.636C837.03 273.758 835.53 277.47 833.136 280.773C830.773 284.045 827.636 286.652 823.727 288.591C819.848 290.5 815.333 291.455 810.182 291.455Z" fill="black"/>
<defs>
<filter id="filter0_f_907_74" x="159.512" y="157.557" width="1093.59" height="189.432" filterUnits="userSpaceOnUse" color-interpolation-filters="sRGB">
<feFlood flood-opacity="0" result="BackgroundImageFix"/>
<feBlend mode="normal" in="SourceGraphic" in2="BackgroundImageFix" result="shape"/>
<feGaussianBlur stdDeviation="10" result="effect1_foregroundBlur_907_74"/>
</filter>
</defs>
</svg>
