<svg width="1440" height="519" viewBox="0 0 1440 519" fill="none" xmlns="http://www.w3.org/2000/svg">
<rect width="1440" height="519" fill="white"/>
<g filter="url(#filter0_f_907_77)">
<path d="M279.894 179.545V195.17H209.723V325H192.11V179.545H279.894ZM296.123 325H277.657L331.066 179.545H349.248L402.657 325H384.191L340.725 202.557H339.588L296.123 325ZM302.941 268.182H377.373V283.807H302.941V268.182ZM425.313 325V179.545H474.461C485.872 179.545 495.199 181.605 502.444 185.724C509.735 189.796 515.133 195.312 518.637 202.273C522.141 209.233 523.892 216.998 523.892 225.568C523.892 234.138 522.141 241.927 518.637 248.935C515.18 255.942 509.83 261.529 502.586 265.696C495.341 269.815 486.061 271.875 474.745 271.875H439.517V256.25H474.176C481.989 256.25 488.263 254.901 492.998 252.202C497.732 249.503 501.165 245.857 503.296 241.264C505.474 236.624 506.563 231.392 506.563 225.568C506.563 219.744 505.474 214.536 503.296 209.943C501.165 205.35 497.709 201.752 492.926 199.148C488.144 196.496 481.8 195.17 473.892 195.17H442.926V325H425.313ZM543.388 325H524.922L578.331 179.545H596.513L649.922 325H631.456L587.99 202.557H586.854L543.388 325ZM550.206 268.182H624.638V283.807H550.206V268.182ZM672.578 325V179.545H690.192V244.318H767.749V179.545H785.363V325H767.749V259.943H690.192V325H672.578ZM812.671 195.17V179.545H921.762V195.17H876.023V325H858.409V195.17H812.671ZM948.946 179.545H966.275V294.034H967.696L1047.24 179.545H1064.29V325H1046.67V210.795H1045.25L965.991 325H948.946V179.545ZM1099.53 179.545H1116.86V294.034H1118.28L1197.83 179.545H1214.87V325H1197.26V210.795H1195.84L1116.58 325H1099.53V179.545Z" fill="#FF0000"/>
</g>
<path d="M525.682 291.273V280.727H531.5C533.742 280.727 535.621 280.288 537.136 279.409C538.682 278.53 539.955 277.394 540.955 276C541.985 274.606 542.833 273.152 543.5 271.636L544.955 268.182L512.773 196.909H524.955L550.591 254.727L574.045 196.909H586.045L553.864 274.909C552.591 277.818 551.136 280.515 549.5 283C547.894 285.485 545.697 287.485 542.909 289C540.152 290.515 536.409 291.273 531.682 291.273H525.682ZM681.92 250.182V260.182H643.375V250.182H681.92ZM645.92 220.182V290H635.193V220.182H645.92ZM690.102 220.182V290H679.375V220.182H690.102ZM730.239 291.636C725.814 291.636 721.799 290.803 718.193 289.136C714.587 287.439 711.723 285 709.602 281.818C707.481 278.606 706.42 274.727 706.42 270.182C706.42 266.182 707.208 262.939 708.784 260.455C710.36 257.939 712.466 255.97 715.102 254.545C717.739 253.121 720.648 252.061 723.83 251.364C727.042 250.636 730.269 250.061 733.511 249.636C737.754 249.091 741.193 248.682 743.83 248.409C746.496 248.106 748.436 247.606 749.648 246.909C750.89 246.212 751.511 245 751.511 243.273V242.909C751.511 238.424 750.284 234.939 747.83 232.455C745.405 229.97 741.723 228.727 736.784 228.727C731.663 228.727 727.648 229.848 724.739 232.091C721.83 234.333 719.784 236.727 718.602 239.273L708.42 235.636C710.239 231.394 712.663 228.091 715.693 225.727C718.754 223.333 722.087 221.667 725.693 220.727C729.33 219.758 732.905 219.273 736.42 219.273C738.663 219.273 741.239 219.545 744.148 220.091C747.087 220.606 749.92 221.682 752.648 223.318C755.405 224.955 757.693 227.424 759.511 230.727C761.33 234.03 762.239 238.455 762.239 244V290H751.511V280.545H750.966C750.239 282.061 749.027 283.682 747.33 285.409C745.633 287.136 743.375 288.606 740.557 289.818C737.739 291.03 734.299 291.636 730.239 291.636ZM731.875 282C736.117 282 739.693 281.167 742.602 279.5C745.542 277.833 747.754 275.682 749.239 273.045C750.754 270.409 751.511 267.636 751.511 264.727V254.909C751.057 255.455 750.057 255.955 748.511 256.409C746.996 256.833 745.239 257.212 743.239 257.545C741.269 257.848 739.345 258.121 737.466 258.364C735.617 258.576 734.117 258.758 732.966 258.909C730.178 259.273 727.572 259.864 725.148 260.682C722.754 261.47 720.814 262.667 719.33 264.273C717.875 265.848 717.148 268 717.148 270.727C717.148 274.455 718.527 277.273 721.284 279.182C724.072 281.061 727.602 282 731.875 282ZM810.182 291.455C803.636 291.455 798 289.909 793.273 286.818C788.545 283.727 784.909 279.47 782.364 274.045C779.818 268.621 778.545 262.424 778.545 255.455C778.545 248.364 779.848 242.106 782.455 236.682C785.091 231.227 788.758 226.97 793.455 223.909C798.182 220.818 803.697 219.273 810 219.273C814.909 219.273 819.333 220.182 823.273 222C827.212 223.818 830.439 226.364 832.955 229.636C835.47 232.909 837.03 236.727 837.636 241.091H826.909C826.091 237.909 824.273 235.091 821.455 232.636C818.667 230.152 814.909 228.909 810.182 228.909C806 228.909 802.333 230 799.182 232.182C796.061 234.333 793.621 237.379 791.864 241.318C790.136 245.227 789.273 249.818 789.273 255.091C789.273 260.485 790.121 265.182 791.818 269.182C793.545 273.182 795.97 276.288 799.091 278.5C802.242 280.712 805.939 281.818 810.182 281.818C812.97 281.818 815.5 281.333 817.773 280.364C820.045 279.394 821.97 278 823.545 276.182C825.121 274.364 826.242 272.182 826.909 269.636H837.636C837.03 273.758 835.53 277.47 833.136 280.773C830.773 284.045 827.636 286.652 823.727 288.591C819.848 290.5 815.333 291.455 810.182 291.455Z" fill="black"/>
<defs>
<filter id="filter0_f_907_77" x="172.11" y="159.545" width="1062.76" height="185.455" filterUnits="userSpaceOnUse" color-interpolation-filters="sRGB">
<feFlood flood-opacity="0" result="BackgroundImageFix"/>
<feBlend mode="normal" in="SourceGraphic" in2="BackgroundImageFix" result="shape"/>
<feGaussianBlur stdDeviation="10" result="effect1_foregroundBlur_907_77"/>
</filter>
</defs>
</svg>
